<svg width="52" height="52" viewBox="0 0 52 52" fill="none" xmlns="http://www.w3.org/2000/svg">
<path d="M25.7877 0.0185547C11.5683 0.0185547 0 11.5871 0 25.8068C0 40.0271 11.5683 51.595 25.7877 51.595C40.0077 51.595 51.5755 40.0265 51.5755 25.8068C51.5755 11.5871 40.0071 0.0185547 25.7877 0.0185547ZM25.7877 49.8611C12.5243 49.8611 1.73386 39.0705 1.73386 25.8068C1.73386 12.5431 12.5243 1.75245 25.7877 1.75245C39.0512 1.75245 49.8416 12.5431 49.8416 25.8068C49.8416 39.0705 39.0512 49.8611 25.7877 49.8611Z" fill="#C47A5E"/>
<path d="M35.9362 31H15.4362C15.2695 34.5 17.0362 41.5 25.4362 41.5C33.8362 41.5 35.9362 34.5 35.9362 31Z" fill="#C47A5E"/>
<path d="M36.3914 29.9961H15.1863C14.7071 29.9961 14.3193 30.3845 14.3193 30.863C14.3193 37.1877 19.4637 42.3333 25.7877 42.3333C32.1122 42.3333 37.2583 37.1883 37.2583 30.863C37.2583 30.3845 36.8699 29.9961 36.3914 29.9961ZM25.7877 40.5995C20.7121 40.5995 16.5317 36.6941 16.0919 31.73H35.4857C35.0453 36.6941 30.8638 40.5995 25.7877 40.5995Z" fill="#C47A5E"/>
<path d="M19.519 18.0711C19.519 15.7332 17.6164 13.8306 15.2785 13.8306C12.9407 13.8306 11.0381 15.7332 11.0381 18.0711C11.0381 20.409 12.9407 22.3116 15.2785 22.3116C17.6169 22.3116 19.519 20.409 19.519 18.0711ZM12.7719 18.0711C12.7719 16.6886 13.8961 15.5645 15.2785 15.5645C16.661 15.5645 17.7851 16.6886 17.7851 18.0711C17.7851 19.4536 16.6604 20.5777 15.2785 20.5777C13.8966 20.5777 12.7719 19.453 12.7719 18.0711Z" fill="#C47A5E"/>
<path d="M35.8152 13.8306C33.4768 13.8306 31.5747 15.7332 31.5747 18.0711C31.5747 20.409 33.4768 22.3116 35.8152 22.3116C38.1536 22.3116 40.0562 20.409 40.0562 18.0711C40.0562 15.7332 38.153 13.8306 35.8152 13.8306ZM35.8152 20.5777C34.4327 20.5777 33.3086 19.4536 33.3086 18.0711C33.3086 16.6886 34.4327 15.5645 35.8152 15.5645C37.1976 15.5645 38.3223 16.6886 38.3223 18.0711C38.3223 19.4536 37.197 20.5777 35.8152 20.5777Z" fill="#C47A5E"/>
</svg>
